<svg width="27" height="19" viewBox="0 0 27 19" fill="none" xmlns="http://www.w3.org/2000/svg">
<path d="M22.3166 15.7714H0V18.4H26.2857V15.7714H22.3166ZM24.9714 14.4571C24.6166 9.108 20.7 4.73143 15.5611 3.66686C15.6926 3.35143 15.7714 2.99657 15.7714 2.62857C15.7714 1.18286 14.5886 0 13.1429 0C11.6971 0 10.5143 1.18286 10.5143 2.62857C10.5143 2.99657 10.5931 3.35143 10.7246 3.66686C5.58571 4.73143 1.66914 9.108 1.31429 14.4571H24.9714ZM13.1429 6.01943C17.02 6.01943 20.332 8.42457 21.6857 11.8154H4.6C5.95371 8.42457 9.26571 6.01943 13.1429 6.01943Z" fill="#C89104"/>
</svg>
