<svg width="21" height="20" viewBox="0 0 21 20" fill="none" xmlns="http://www.w3.org/2000/svg">
<path fill-rule="evenodd" clip-rule="evenodd" d="M15.2391 1.09665C14.8248 0.890615 14.2665 0.701442 13.617 0.857442C13.2873 0.936611 12.9998 1.09005 12.7462 1.2778C10.1556 0.641458 7.34901 0.99147 5.10164 2.22773C2.62113 3.59224 0.800049 6.06113 0.800049 9.41618C0.800049 11.9125 1.93221 14.2883 3.95786 15.9043V17.9849V19.1685L5.14136 19.1847L6.23488 19.1997L6.23488 19.1999H6.25136H6.97559V19.2L6.99264 19.1997L8.04947 19.1847L9.2324 19.1679V17.9849V17.9457C9.73394 17.9877 10.2326 17.9911 10.7216 17.9547V17.9849V19.1691L11.9057 19.1847L13.0422 19.1998L13.0422 19.1999H13.058H13.7821V19.2L13.7999 19.1997L14.8139 19.1847L15.9961 19.1672V17.9849V15.9009C17.0545 15.0496 17.9033 13.9697 18.4574 12.8089H19.2387H20.4052L20.4382 11.6428L20.5612 7.29342L20.5957 6.07048L19.3723 6.05959L18.4573 6.05144C17.9678 5.03623 17.2573 4.09139 16.4763 3.31763C16.4639 3.19493 16.4457 3.05734 16.4189 2.91307C16.3723 2.6627 16.2911 2.34344 16.1385 2.0348C15.9892 1.73274 15.7184 1.33496 15.2391 1.09665ZM6.83244 16.5449V16.7999H6.35781V15.3001V14.667L5.8352 14.3096C4.12953 13.1431 3.2 11.3186 3.2 9.41618C3.2 7.04698 4.44256 5.32938 6.25837 4.33052C8.11039 3.31174 10.5335 3.06771 12.6943 3.75495L13.4168 3.98471L13.9345 3.431C13.9787 3.38371 14.0177 3.34456 14.0516 3.31225L14.0594 3.35198C14.0827 3.47725 14.0944 3.60438 14.0998 3.70413C14.1023 3.75247 14.1032 3.79077 14.1035 3.81472L14.1036 3.83846L14.1036 3.83955L14.1036 3.84067L14.1036 3.84078L14.0925 4.38566L14.5017 4.75311C15.4006 5.56016 16.1678 6.62404 16.5238 7.64086L16.8024 8.43676L17.6457 8.44426L18.1276 8.44855L18.0722 10.4089H17.6564H16.8042L16.5234 11.2134C16.1199 12.3696 15.2636 13.519 14.1143 14.3127L13.5962 14.6705V15.3001V16.7999H13.1215V16.5449V14.9862L11.6146 15.3849C10.6439 15.6417 9.49122 15.6509 8.30306 15.3759L6.83244 15.0354V16.5449ZM13.9816 3.08814L13.9843 3.0928C13.9833 3.09107 13.9826 3.08984 13.9822 3.08908C13.9818 3.0884 13.9816 3.0881 13.9816 3.08814ZM13.1657 7.7796V7.77962C13.1657 7.84625 13.1447 7.97882 13.0293 8.10832C12.9004 8.253 12.7332 8.30371 12.619 8.30371C12.5156 8.30371 12.3856 8.26265 12.2785 8.15788C12.173 8.05461 12.1174 7.91538 12.1174 7.7796H12.619H13.1173L12.619 7.77945L12.1174 7.77929C12.1174 7.64366 12.173 7.50442 12.2787 7.40109C12.3858 7.29631 12.5158 7.25534 12.619 7.25534C12.7329 7.25534 12.9001 7.30591 13.0291 7.45058C13.1446 7.58018 13.1657 7.71291 13.1657 7.7796ZM12.619 6.30376C12.2122 6.30376 11.8183 6.46105 11.536 6.77798C11.2671 7.07975 11.1658 7.45026 11.1658 7.7796C11.1658 8.10907 11.2672 8.47967 11.5362 8.78142C11.8187 9.09826 12.2125 9.2553 12.619 9.2553C13.4428 9.2553 14.1171 8.61556 14.1173 7.77991V7.7796C14.1173 6.94412 13.4432 6.30376 12.619 6.30376Z" fill="#038A39"/>
</svg>
